HIERARCHY
ROOT Hips
{
	OFFSET 0.000000 88.474243 0.000000
	CHANNELS 6 Xposition Yposition Zposition Zrotation Yrotation Xrotation 
	JOINT Hips_Spine
	{
		OFFSET 0.000000 0.000000 0.000000
		CHANNELS 3 Zrotation Yrotation Xrotation
		JOINT Spine
		{
			OFFSET 0.005100 8.711998 -0.691000
			CHANNELS 3 Zrotation Yrotation Xrotation
			JOINT Spine1
			{
				OFFSET -0.009200 8.660301 -1.275000
				CHANNELS 3 Zrotation Yrotation Xrotation
				JOINT Spine2
				{
					OFFSET 0.006300 9.852501 -1.857000
					CHANNELS 3 Zrotation Yrotation Xrotation
					JOINT Spine2_Neck
					{
						OFFSET 0.000000 0.000000 0.000000
						CHANNELS 3 Zrotation Yrotation Xrotation
						JOINT Neck
						{
							OFFSET 0.016300 11.420799 -0.263300
							CHANNELS 3 Zrotation Yrotation Xrotation
							End Site #name: Head
							{
								OFFSET -0.019200 9.262405 2.362500
							}
						}
					}
					JOINT Spine2_LeftShoulder
					{
						OFFSET 0.000000 0.000000 0.000000
						CHANNELS 3 Zrotation Yrotation Xrotation
						JOINT LeftShoulder
						{
							OFFSET 5.616900 6.732201 -0.345700
							CHANNELS 3 Zrotation Yrotation Xrotation
							JOINT LeftArm
							{
								OFFSET 10.664888 -0.183372 -2.440700
								CHANNELS 3 Zrotation Yrotation Xrotation
								JOINT LeftForeArm
								{
									OFFSET 27.459126 0.000000 0.000000
									CHANNELS 3 Zrotation Yrotation Xrotation
									End Site #name: LeftHand
									{
										OFFSET 21.306858 0.000000 0.000000
									}
								}
							}
						}
					}
					JOINT Spine2_RightShoulder
					{
						OFFSET 0.000000 0.000000 0.000000
						CHANNELS 3 Zrotation Yrotation Xrotation
						JOINT RightShoulder
						{
							OFFSET -5.580300 6.737503 -0.344400
							CHANNELS 3 Zrotation Yrotation Xrotation
							JOINT RightArm
							{
								OFFSET -10.679335 -0.188484 -2.383900
								CHANNELS 3 Zrotation Yrotation Xrotation
								JOINT RightForeArm
								{
									OFFSET -27.503529 0.000000 0.000000
									CHANNELS 3 Zrotation Yrotation Xrotation
									End Site #name: RightHand
									{
										OFFSET -21.306808 0.000000 0.000000
									}
								}
							}
						}
					}
				}
			}
		}
	}
	JOINT Hips_LeftUpLeg
	{
		OFFSET 0.000000 0.000000 0.000000
		CHANNELS 3 Zrotation Yrotation Xrotation
		JOINT LeftUpLeg
		{
			OFFSET 6.857700 -6.739601 0.312100
			CHANNELS 3 Zrotation Yrotation Xrotation
			JOINT LeftLeg
			{
				OFFSET -0.367590 -34.731552 -4.572400
				CHANNELS 3 Zrotation Yrotation Xrotation
				End Site #name: LeftFoot
				{
					OFFSET 0.367590 -34.656704 -6.067400
				}
			}
		}
	}
	JOINT Hips_RightUpLeg
	{
		OFFSET 0.000000 0.000000 0.000000
		CHANNELS 3 Zrotation Yrotation Xrotation
		JOINT RightUpLeg
		{
			OFFSET -6.876100 -6.733299 0.301000
			CHANNELS 3 Zrotation Yrotation Xrotation
			JOINT RightLeg
			{
				OFFSET 0.347353 -34.795158 -4.515900
				CHANNELS 3 Zrotation Yrotation Xrotation
				End Site #name: RightFoot
				{
					OFFSET -0.347353 -34.589367 -6.070300
				}
			}
		}
	}
}
MOTION
Frames: 13
Frame Time: 0.041667
-0.137864 0.412509 -0.267536 0.228826 -10.478000 -2.095766 -0.000000 -0.000000 0.000000 -1.485779 0.365500 2.972760 1.096134 0.552444 -1.482886 0.000000 0.000000 0.000000 0.320589 -0.232076 1.023104 2.632626 -9.999635 2.809997 -3.096123 1.525368 3.949548 -5.301644 -14.190859 1.467585 -44.614235 -25.281223 15.047337 -9.706225 -70.629274 13.352638 2.278867 -0.339060 2.915488 8.430769 -5.390181 5.779467 56.159437 -17.389356 -6.102168 -18.680381 78.536790 -11.884447 -0.000000 0.000000 0.000000 1.459805 4.233984 -36.173632 16.748231 12.142171 38.867004 -0.000000 -0.000000 -0.000000 5.390508 -9.312287 -33.270444 -5.752643 2.501464 48.281222 
-0.311594 0.659941 -0.285727 3.210937 -19.408696 -4.430623 -0.000000 -0.000000 0.000000 -0.513554 1.575601 9.169887 0.648038 0.501588 4.752222 0.000000 0.000000 0.000000 0.610407 -1.671484 1.074851 -3.693295 -8.810383 1.638684 -0.234157 -0.727153 6.636341 -8.540283 -18.002548 2.666389 -46.572969 -14.382279 28.178508 -151.043528 -77.014273 155.283236 1.398568 0.530540 3.866794 15.473757 -12.698367 3.882625 50.664326 -7.957462 13.362428 -1.316184 75.885235 -2.830731 -0.000000 0.000000 0.000000 -1.004624 1.535769 -34.769621 17.295381 17.000102 38.555974 -0.000000 -0.000000 -0.000000 6.224444 -10.431260 -35.245641 -7.228011 -7.838347 35.400822 
-0.775680 1.257890 -0.320531 2.928762 -18.054183 -7.413532 -0.000000 -0.000000 0.000000 0.637771 1.365079 10.580863 0.563011 0.343190 5.233910 0.000000 0.000000 0.000000 0.506578 -1.921945 0.376484 -5.911015 -7.489333 0.285588 0.334849 -1.501346 5.485126 -9.263787 -18.104495 2.855157 -49.871111 -14.626693 34.406864 -161.617004 -67.386726 166.970037 1.042376 0.052522 4.938844 12.087953 -7.278691 3.777703 52.657674 -18.272371 14.140955 12.505896 78.831001 16.617433 -0.000000 0.000000 0.000000 -2.780960 -0.484116 -37.613751 17.486699 18.286285 40.217872 -0.000000 -0.000000 -0.000000 -1.246233 -12.986338 -28.928987 -8.514680 -9.887894 33.265949 
-1.220474 1.807159 -0.543997 2.442364 -15.774393 -8.233289 -0.000000 0.000000 0.000000 0.649301 1.621621 11.078120 0.784851 0.036917 5.566618 0.000000 0.000000 0.000000 0.723322 -1.690486 0.582119 -5.506832 -6.422076 1.167090 1.015745 -1.512699 4.865963 -9.162790 -15.749897 2.562298 -48.540567 -14.749491 35.834904 -154.823442 -73.227106 161.212576 0.699084 -0.363070 5.003120 10.657419 -6.106825 3.372990 49.693154 -18.420907 15.887577 24.457319 78.636624 34.734309 -0.000000 0.000000 0.000000 -2.985306 1.966357 -35.771056 15.916554 19.012716 36.375960 -0.000000 -0.000000 -0.000000 -3.929536 -14.930225 -25.449879 -10.007025 -10.527605 40.024737 
-1.627012 2.289546 -0.906937 1.056469 -12.968695 -8.367750 -0.000000 0.000000 0.000000 0.888418 1.759928 11.430505 0.947910 -0.134215 5.868495 0.000000 0.000000 0.000000 1.152572 -1.023244 1.867375 -5.075706 -3.995048 2.307562 1.798868 -0.956296 4.460309 -8.783735 -11.197700 1.896395 -45.915047 -10.305249 34.936695 -142.742218 -78.630556 150.396697 0.471738 -0.738594 4.478749 9.399869 -5.467230 2.555305 47.281680 -15.451066 18.073303 24.340493 78.283695 34.984416 -0.000000 0.000000 0.000000 -2.099186 5.166504 -33.640282 12.291564 17.162641 32.672470 -0.000000 -0.000000 0.000000 -5.238004 -15.571688 -20.397966 -10.596246 -10.754538 45.234044 
-2.056878 2.697872 -1.348977 -0.012130 -11.395410 -8.208734 -0.000000 0.000000 0.000000 1.133906 1.867916 11.507397 1.078579 -0.184832 6.019988 0.000000 0.000000 0.000000 1.625656 -0.395070 2.976469 -4.713989 -1.483271 3.019408 2.464264 -0.474348 4.278514 -8.200158 -7.317408 1.344581 -43.586305 -6.203943 34.012685 -136.711745 -80.441843 145.461915 0.376086 -0.786955 4.114350 8.424341 -4.691234 2.104432 47.546250 -11.612611 20.571345 20.319889 77.470903 30.213095 -0.000000 0.000000 0.000000 -0.557594 7.843787 -32.808902 8.270897 13.818188 33.314757 -0.000000 -0.000000 0.000000 -5.136242 -15.426077 -17.027774 -10.868425 -10.784295 47.696723 
-2.539080 3.035349 -1.820387 -0.610356 -10.648374 -7.727918 -0.000000 0.000000 0.000000 1.188597 1.874292 11.336692 1.166943 -0.177186 5.948292 0.000000 0.000000 0.000000 2.102255 0.168810 3.860127 -4.253020 0.693637 3.466668 2.942591 -0.078082 4.175019 -7.605687 -4.501481 0.995945 -41.831933 -3.578619 32.458006 -136.075964 -81.006549 145.701564 0.335829 -0.560517 3.960964 7.884037 -3.939012 1.965432 49.470867 -7.102827 22.137129 17.314509 77.946177 26.246166 -0.000000 0.000000 0.000000 0.420461 9.368238 -31.836914 4.786571 10.014473 34.046666 -0.000000 -0.000000 0.000000 -3.944424 -15.226155 -15.756470 -10.836372 -10.720579 48.011574 
-3.097019 3.327478 -2.298405 -1.250173 -9.381419 -6.314779 -0.000000 0.000000 0.000000 1.078467 1.792202 10.705450 1.186518 -0.142658 5.600086 0.000000 0.000000 0.000000 2.566813 0.628205 4.453152 -3.616479 2.176976 3.739937 3.287127 0.187971 3.939571 -7.028398 -2.778053 0.677608 -41.077894 -1.716418 30.726701 -143.057566 -80.145541 153.176765 0.258752 -0.250140 3.742201 7.237189 -3.305653 1.805122 51.325422 -2.557165 22.848926 16.161749 79.956856 24.566862 -0.000000 0.000000 0.000000 1.107868 9.864997 -31.335182 1.630417 6.650813 34.233869 -0.000000 -0.000000 0.000000 -2.540139 -15.093963 -17.266394 -10.450645 -10.112240 46.790391 
-3.741594 3.578215 -2.783337 -1.723210 -7.540634 -4.098209 -0.000000 0.000000 0.000000 0.884036 1.609150 9.533678 1.166475 -0.117365 4.916209 0.000000 0.000000 0.000000 3.015085 0.959279 4.752622 -2.831671 2.933478 3.911894 3.514638 0.280929 3.521916 -6.627814 -2.007146 0.357013 -41.036401 -0.898868 28.712587 -151.915926 -78.215660 162.055115 0.148834 0.123368 3.447828 6.443375 -2.465468 1.646109 52.456175 1.873316 22.971719 17.082279 82.808633 25.038848 -0.000000 0.000000 0.000000 1.258525 8.922013 -33.700037 -0.686815 3.461169 34.978406 -0.000000 -0.000000 0.000000 -1.416418 -14.355960 -21.099569 -9.933063 -9.292392 44.224839 
-4.409730 3.768084 -3.304828 -1.782299 -5.596766 -2.459993 -0.000000 0.000000 0.000000 0.684346 1.456461 8.550074 1.145003 -0.058773 4.308857 0.000000 0.000000 0.000000 3.334889 1.144560 4.838396 -2.169331 3.000634 3.949994 3.677462 0.335636 3.101050 -6.348968 -1.520796 0.111078 -40.886748 0.241938 26.632573 -158.994907 -75.430373 169.056891 0.061702 0.407966 3.083366 5.687397 -1.932113 1.400378 53.442092 5.412039 22.412119 18.419318 84.870099 25.974172 -0.000000 0.000000 0.000000 1.216104 6.816950 -35.412349 -2.434672 0.920504 35.760513 -0.000000 -0.000000 0.000000 -0.741344 -13.306086 -24.435398 -9.520461 -8.524062 42.311311 
-5.046767 3.873353 -3.901683 -1.400950 -3.506292 -1.536023 -0.000000 0.000000 0.000000 0.512164 1.354852 7.739982 1.128319 0.021451 3.808830 0.000000 0.000000 0.000000 3.530775 1.168750 4.748592 -1.670005 2.453082 3.826822 3.779391 0.336994 2.700253 -6.233397 -1.334557 -0.064947 -40.819034 1.670323 24.650161 -163.753177 -72.288958 173.644213 0.005642 0.590955 2.667904 4.892250 -1.419532 1.110192 54.331632 8.120247 21.348465 18.894472 86.240068 26.227037 -0.000000 0.000000 0.000000 0.960456 4.224250 -36.449652 -3.927952 -1.203777 36.536210 -0.000000 -0.000000 0.000000 -0.420166 -11.822795 -26.403243 -9.023630 -7.965693 40.305027 
-5.597995 3.869026 -4.634606 -0.515016 -1.386452 -1.542701 -0.000000 0.000000 0.000000 0.366954 1.289113 7.076466 1.107336 0.109266 3.442937 0.000000 0.000000 0.000000 3.624250 1.077807 4.485916 -1.312252 1.444253 3.584026 3.836895 0.262342 2.317427 -6.264588 -1.515361 -0.211047 -40.801629 2.515823 23.070388 -167.363952 -68.511333 176.908943 0.045979 0.712461 2.245881 4.293695 -1.125467 0.807532 55.166273 9.778594 20.107351 17.676045 87.129348 24.726717 -0.000000 -0.000000 0.000000 0.469899 1.673897 -36.836030 -5.114018 -2.823451 37.227958 -0.000000 -0.000000 -0.000000 -0.503895 -9.873040 -26.821443 -8.268964 -7.093564 38.547024 
-5.980616 3.713835 -5.545333 0.789022 0.792826 -2.287766 -0.000000 0.000000 0.000000 0.215933 1.268056 6.645709 1.086126 0.201868 3.218161 0.000000 0.000000 0.000000 3.614000 0.871684 4.051054 -1.084744 0.042988 3.216587 3.851473 0.119298 1.979788 -6.474587 -2.037394 -0.328978 -40.765908 2.518990 21.780759 -169.709085 -65.452522 178.769776 0.180237 0.767511 1.816495 4.135442 -1.262095 0.455668 55.694785 10.439716 18.377710 12.152559 87.161465 19.031863 -0.000000 -0.000000 0.000000 -0.463354 -0.995028 -36.888305 -6.212496 -3.959754 38.085571 -0.000000 -0.000000 -0.000000 -0.746829 -7.860564 -26.339045 -7.412712 -6.093946 37.308736 
